<svg width="24" height="24" viewBox="0 0 24 24" fill="none" xmlns="http://www.w3.org/2000/svg">
<path d="M6.54 5.00006C6.6 5.89006 6.75 6.76006 6.99 7.59006L5.79 8.79006C5.38 7.59006 5.12 6.32006 5.03 5.00006H6.54ZM16.4 17.0201C17.25 17.2601 18.12 17.4101 19 17.4701V18.9601C17.68 18.8701 16.41 18.6101 15.2 18.2101L16.4 17.0201ZM7.5 3.00006H4C3.45 3.00006 3 3.45006 3 4.00006C3 13.3901 10.61 21.0001 20 21.0001C20.55 21.0001 21 20.5501 21 20.0001V16.5101C21 15.9601 20.55 15.5101 20 15.5101C18.76 15.5101 17.55 15.3101 16.43 14.9401C16.33 14.9001 16.22 14.8901 16.12 14.8901C15.86 14.8901 15.61 14.9901 15.41 15.1801L13.21 17.3801C10.38 15.9301 8.06 13.6201 6.62 10.7901L8.82 8.59006C9.1 8.31006 9.18 7.92006 9.07 7.57006C8.7 6.45006 8.5 5.25006 8.5 4.00006C8.5 3.45006 8.05 3.00006 7.5 3.00006Z" fill="#81737A"/>
</svg>
